<svg width="106" height="22" viewBox="0 0 106 22" fill="none" xmlns="http://www.w3.org/2000/svg">
<path d="M3.82439 1.24558C2.96734 1.52058 2.24773 2.17573 1.92432 2.98455L1.73835 3.4375L1.7141 10.6765C1.69792 15.125 1.72218 18.1096 1.77069 18.425C1.81112 18.7081 1.9324 19.1044 2.02943 19.3147C2.29625 19.8566 2.96734 20.4875 3.53332 20.7221L4.00227 20.9081H11.643H19.2837L19.7931 20.6735C20.5208 20.3338 21.1272 19.6625 21.3455 18.9426C21.5072 18.4088 21.5072 18.2471 21.4911 10.8382L21.4668 3.27573L21.2323 2.79852C20.9332 2.18382 20.4561 1.70661 19.8416 1.40735L19.3646 1.17279L11.7643 1.15661C5.63553 1.14044 4.0993 1.1647 3.82439 1.24558ZM13.2763 4.31911C15.2815 4.82867 16.9471 6.1875 17.8364 8.04779C18.3297 9.05882 18.4509 9.57647 18.4914 10.7978C18.5237 11.6794 18.5075 11.9625 18.362 12.561C18.0386 13.936 17.4079 15.0198 16.3568 16.0228C14.9338 17.3816 13.155 18.0448 11.2387 17.9316C10.22 17.8669 9.58931 17.6971 8.61097 17.2279C5.80532 15.8691 4.24484 12.8118 4.8189 9.77867C5.08572 8.35514 5.68404 7.24705 6.74323 6.17941C7.78626 5.13603 8.9829 4.48088 10.3574 4.21397C11.1175 4.06029 12.4677 4.11691 13.2763 4.31911Z" fill="#13216A"/>
<path d="M11.4169 6.44674C11.3765 6.52762 11.2633 6.82688 11.1582 7.10997C10.5922 8.65482 8.93472 10.2239 7.37423 10.685C6.71931 10.8791 6.71123 11.1541 7.37423 11.3644C9.19345 11.9548 10.6812 13.4431 11.2795 15.271C11.5059 15.9585 11.7484 15.9261 11.9991 15.1659C12.5651 13.4269 14.4005 11.696 16.1146 11.2916C16.2763 11.2511 16.3329 11.1945 16.3329 11.0328C16.3329 10.9114 16.2763 10.8144 16.1954 10.7901C14.7239 10.3372 13.6 9.56071 12.8157 8.45262C12.3872 7.846 12.2255 7.53865 12.0072 6.87541C11.8697 6.47909 11.7889 6.34159 11.6595 6.32541C11.5625 6.30924 11.4655 6.35777 11.4169 6.44674Z" fill="#CD011D"/>
<path d="M70.1818 10.9188V17.7938H71.5563H72.9308V15.2056V12.6174H75.3888C77.5799 12.6174 77.9033 12.6012 78.34 12.4637C80.232 11.8732 81.2588 9.39824 80.6362 6.91515C80.2724 5.46735 79.1808 4.39162 77.7902 4.12471C77.5395 4.07618 75.8739 4.04383 73.7717 4.04383H70.1818V10.9188ZM77.0948 6.62397C77.4021 6.7453 77.677 7.00412 77.8468 7.31956C78.0489 7.69971 78.0327 9.07471 77.8225 9.50338C77.5152 10.1181 77.3778 10.1504 75.0168 10.1747L72.9308 10.199V8.3225V6.44603L74.8956 6.48647C76.1326 6.51883 76.9412 6.56735 77.0948 6.62397Z" fill="#13216A"/>
<path d="M25.3878 10.9593V17.7938H26.7623H28.1369V13.4019L28.145 9.01809L29.6408 12.7549L31.1446 16.4997H32.22H33.2954L34.775 12.8115L36.2627 9.12323L36.287 13.4585L36.3032 17.7938H37.7181H39.1331V10.9593V4.1247H37.33H35.527L33.9179 8.00706C33.0366 10.1504 32.2928 11.9137 32.2604 11.9299C32.2362 11.946 31.4923 10.199 30.6029 8.03941L28.9939 4.1247H27.1909H25.3878V10.9593Z" fill="#13216A"/>
<path d="M40.9532 4.27882C40.3387 4.64279 40.0638 5.33838 40.2578 5.98544C40.6217 7.19059 42.2711 7.41706 42.9099 6.33323C43.3546 5.57294 43.0958 4.62662 42.352 4.23838C42.0285 4.06853 41.2523 4.09279 40.9532 4.27882Z" fill="#13216A"/>
<path d="M100.179 5.48383L98.8444 6.03383L98.8202 6.85883L98.7959 7.68383H98.4401H98.0763V8.89707V10.1103H98.4401H98.804V12.7228C98.804 15.6184 98.8363 15.8449 99.3134 16.5485C99.4508 16.7588 99.75 17.0581 99.9602 17.2037C100.615 17.6404 101.019 17.7294 102.709 17.7699L104.221 17.8103V16.6052V15.3919L103.356 15.3434C102.418 15.2949 102.103 15.214 101.82 14.9471C101.634 14.7772 101.634 14.753 101.634 12.4397V10.1103H102.928H104.221V8.89707V7.68383H102.928H101.634V6.30883C101.634 5.54854 101.61 4.93383 101.577 4.93383C101.537 4.93383 100.914 5.18457 100.179 5.48383Z" fill="#13216A"/>
<path d="M47.8977 7.61139C46.7496 7.75698 45.9976 8.11286 45.3346 8.80845C44.4937 9.69007 44.1542 10.693 44.0895 12.4967C43.9763 15.4408 44.898 17.1393 46.9355 17.7702C47.542 17.9562 49.9595 17.9805 50.7357 17.8026C51.4391 17.6489 52.2315 17.382 52.2315 17.3011C52.2315 17.1879 51.6736 15.1092 51.6332 15.0687C51.617 15.0526 51.1723 15.1335 50.6387 15.2467C49.8544 15.4246 49.531 15.457 48.8275 15.4327C48.0513 15.4085 47.9381 15.3842 47.6309 15.182C47.3964 15.0283 47.2347 14.8261 47.1215 14.5835C46.9113 14.1062 46.8143 13.0305 46.9032 12.1489C47.0245 10.9599 47.453 10.329 48.302 10.1026C48.7548 9.97316 49.822 10.0621 50.8165 10.3048C51.2612 10.4099 51.6332 10.4989 51.6413 10.4908C51.7221 10.4018 52.2234 8.20992 52.1749 8.16139C52.0294 8.02389 50.6548 7.68419 49.8786 7.60331C48.965 7.51434 48.6173 7.51434 47.8977 7.61139Z" fill="#13216A"/>
<path d="M63.2684 7.60294C62.185 7.78088 61.3603 8.16912 60.7215 8.80809C60.2364 9.29338 59.9696 9.77059 59.7836 10.4581C59.6219 11.0809 59.6219 14.4294 59.7917 15.0846C60.2607 16.8802 61.9263 17.9559 64.2387 17.9559C66.5511 17.9559 68.2167 16.8802 68.6857 15.0846C68.8555 14.4294 68.8555 11.0809 68.6938 10.4581C68.3218 9.05883 67.3192 8.12868 65.7749 7.72427C65.1604 7.57059 63.8991 7.50588 63.2684 7.60294ZM65.1685 10.1669C65.5324 10.3125 65.7911 10.5551 66.0013 10.9596C66.163 11.2507 66.1792 11.4125 66.1792 12.6177C66.1792 14.2677 66.1388 14.4779 65.7183 14.9309C64.9826 15.7316 63.5029 15.7316 62.7591 14.9309C62.3224 14.4537 62.2254 13.9846 62.2739 12.4559C62.3144 11.2265 62.379 10.9596 62.7752 10.5309C63.2604 9.98897 64.3519 9.82721 65.1685 10.1669Z" fill="#13216A"/>
<path d="M84.937 7.59486C83.5302 7.82942 82.3982 8.50883 81.8484 9.44706C81.4199 10.175 81.3228 10.6765 81.2824 12.375C81.2177 14.8257 81.4603 15.8125 82.3659 16.7103C83.2391 17.5838 84.5813 18.0125 86.2307 17.9316C88.4704 17.8265 89.8772 16.8235 90.3543 14.9875C90.5241 14.3404 90.5241 11.2507 90.3543 10.5309C90.0147 9.10736 89.004 8.12059 87.4435 7.72427C86.8614 7.57868 85.4949 7.50589 84.937 7.59486ZM86.918 10.2235C87.1363 10.3287 87.3788 10.5471 87.5244 10.7493L87.7669 11.0971L87.7912 12.561C87.8235 14.1544 87.775 14.4779 87.4273 14.8824C87.0635 15.3191 86.6431 15.489 85.9073 15.489C85.0502 15.489 84.5651 15.2544 84.2093 14.6802C83.9749 14.3 83.9668 14.2677 83.9425 13.0302C83.9183 12.2456 83.9506 11.6066 84.0072 11.3397C84.1123 10.8706 84.4438 10.4257 84.8319 10.2235C85.4302 9.91618 86.2873 9.91618 86.918 10.2235Z" fill="#13216A"/>
<path d="M40.2657 12.7387V17.7938H41.6807H43.0956V12.7387V7.68353H41.6807H40.2657V12.7387Z" fill="#13216A"/>
<path d="M57.0831 7.74015C55.8218 7.87765 54.4553 8.29015 53.8085 8.735C53.1051 9.22029 53.1212 9.07471 53.1212 13.7254V17.7938H54.5362H55.9511L55.9673 14.2188L55.9916 10.6438L56.2665 10.4821C56.6303 10.2718 57.455 10.1181 58.2393 10.11H58.8619V8.89677V7.68353L58.118 7.69971C57.7057 7.69971 57.2367 7.72397 57.0831 7.74015Z" fill="#13216A"/>
<path d="M94.8909 7.81294C93.5002 8.03133 92.5137 8.37912 91.9397 8.86441C91.4303 9.29309 91.4465 9.13132 91.4465 13.6688V17.7938H92.821H94.1955V14.2916V10.7813L94.3896 10.6034C94.6806 10.3365 95.2628 10.1828 96.2816 10.1343L97.1871 10.0857V8.88868V7.68353L96.4028 7.69162C95.9662 7.69971 95.287 7.74824 94.8909 7.81294Z" fill="#13216A"/>
</svg>
