<svg width="155" height="20" viewBox="0 0 155 20" fill="none" xmlns="http://www.w3.org/2000/svg">
<g clip-path="url(#clip0_1441_2106)">
<path d="M30.8947 4.25293L24.5623 15.9004H26.2791L27.8615 12.9475H35.4598L37.0619 15.9004H38.7759L32.4351 4.25293H30.8947ZM28.6541 11.549L31.6817 5.98254L34.6868 11.549H28.6541Z" fill="#042336"/>
<path d="M52.6535 9.8522C53.1681 9.24849 53.431 8.47756 53.3901 7.69292C53.4002 7.17701 53.2981 6.66489 53.0904 6.19046C52.8747 5.74326 52.5351 5.36403 52.1102 5.09577C51.6116 4.78322 51.0564 4.56678 50.4745 4.45811C49.7082 4.3106 48.9281 4.24181 48.1471 4.25286H42.1256V15.9004H43.6912V11.1084H48.6793L49.0378 11.0919L52.7599 15.9004H54.7204L50.693 10.8839C51.4393 10.7446 52.1237 10.3844 52.6535 9.8522ZM46.9933 9.68526L43.6912 9.688V5.67595H47.0521C47.9735 5.67595 48.7577 5.70058 49.4075 5.76079C49.9104 5.79325 50.4058 5.89744 50.8778 6.07004C51.1832 6.18117 51.4423 6.3881 51.6144 6.65844C51.7821 6.98072 51.8612 7.34 51.8441 7.70113C51.858 8.0627 51.7739 8.42144 51.6004 8.74109C51.4208 9.00728 51.1573 9.20903 50.8498 9.3158C50.3711 9.48772 49.8691 9.59007 49.3599 9.61958C48.7129 9.66884 47.9147 9.69347 46.9961 9.69347L46.9933 9.68526Z" fill="#042336"/>
<path d="M69.1301 4.72074C68.7167 4.58147 68.296 4.46362 67.8698 4.36771C67.4146 4.26339 66.9536 4.18481 66.4891 4.13235C65.9665 4.07484 65.4409 4.04743 64.9151 4.05025C64.2355 4.04826 63.557 4.10412 62.8873 4.21719C62.268 4.322 61.6616 4.48986 61.0781 4.71801C60.5305 4.93132 60.0129 5.2118 59.5377 5.55271C59.0795 5.88362 58.6761 6.28145 58.3418 6.73224C58.0031 7.19378 57.743 7.70576 57.5716 8.24838C57.3819 8.84179 57.2874 9.46033 57.2915 10.082C57.2874 10.7037 57.3819 11.3222 57.5716 11.9156C57.743 12.4582 58.0031 12.9702 58.3418 13.4317C58.6761 13.8825 59.0795 14.2804 59.5377 14.6113C60.0127 14.9539 60.5303 15.2362 61.0781 15.4515C61.6627 15.6793 62.27 15.8471 62.8901 15.9523C63.5591 16.0639 64.2365 16.1197 64.9151 16.1192C65.4369 16.1242 65.9587 16.1004 66.4779 16.0481C66.9414 15.9956 67.4015 15.917 67.8558 15.8127C68.284 15.7162 68.7066 15.5975 69.1217 15.4569C69.5278 15.3201 69.9367 15.1668 70.3456 15.0054L70.4969 14.9452V13.1362L70.1188 13.3743C69.4595 13.7904 68.744 14.1147 67.993 14.3376C67.5498 14.4682 67.0978 14.5688 66.6403 14.6386C66.1344 14.7148 65.623 14.7514 65.1111 14.7481C64.156 14.7649 63.2032 14.6525 62.2796 14.4142C61.5748 14.2309 60.9155 13.9097 60.3415 13.4701C59.8562 13.0835 59.477 12.5851 59.238 12.0196C58.9867 11.4045 58.8621 10.747 58.8711 10.0847C58.8608 9.42136 58.9825 8.76235 59.2296 8.14439C59.4735 7.57649 59.8586 7.07701 60.3499 6.69119C60.9232 6.25379 61.5803 5.93278 62.2824 5.74702C63.2079 5.50352 64.1639 5.38836 65.1223 5.40493C65.6296 5.40169 66.1363 5.4383 66.6375 5.51439C67.0875 5.58332 67.5321 5.683 67.9678 5.8127C68.363 5.93525 68.7495 6.08336 69.1245 6.25605C69.4681 6.42025 69.8042 6.6027 70.1328 6.80339L70.5081 7.03875V5.22978L70.3568 5.16683C69.9423 5.00536 69.5334 4.85484 69.1301 4.72074Z" fill="#042336"/>
<path d="M88.5391 9.06683H76.4204V4.25293H74.8772V15.9004H76.4204V10.468H88.5391V15.9004H90.0851V4.25293H88.5391V9.06683Z" fill="#042336"/>
<path d="M96.2439 4.25293H94.6979V15.9004H96.2439V4.25293Z" fill="#042336"/>
<path d="M108.853 14.179L102.179 4.25293H100.669V15.9004H102.215V6.9185L108.222 15.9004H109.43L115.432 6.95682V15.9004H116.961V4.25293H115.454L108.853 14.179Z" fill="#042336"/>
<path d="M122.192 10.4516H130.287V9.05315H122.192V5.67876H130.718V4.25293H120.551V15.9004H130.844V14.4773H122.192V10.4516Z" fill="#042336"/>
<path d="M154.465 7.28518C154.135 6.56687 153.622 5.94316 152.975 5.47347C152.316 5.00915 151.566 4.68388 150.771 4.51835C149.878 4.33025 148.967 4.23847 148.054 4.24468H134.236V15.9004H148.06C148.681 15.9014 149.301 15.8611 149.917 15.78C150.48 15.7056 151.033 15.5754 151.569 15.3914C152.068 15.2148 152.54 14.9707 152.97 14.6661C153.399 14.3622 153.769 13.9848 154.062 13.5523C154.374 13.0882 154.607 12.5781 154.754 12.0416C154.923 11.3999 155.005 10.7392 154.997 10.0766C155.03 9.11941 154.848 8.16678 154.465 7.28518ZM153.034 12.2441C152.798 12.7734 152.427 13.2343 151.956 13.5824C151.454 13.9333 150.881 14.175 150.275 14.2912C149.544 14.4366 148.798 14.5072 148.052 14.5019H135.782V5.65136H148.054C148.567 5.64846 149.08 5.67863 149.589 5.74167C150.036 5.79209 150.475 5.89029 150.9 6.0345C151.279 6.16039 151.637 6.33922 151.964 6.56542C152.273 6.78401 152.538 7.05684 152.746 7.37002C152.976 7.72378 153.147 8.11204 153.25 8.51945C153.374 9.02753 153.433 9.54878 153.426 10.0712C153.453 10.8144 153.32 11.5549 153.034 12.2441Z" fill="#042336"/>
<path d="M17.6277 6.75423C17.0515 6.75442 16.4861 6.90766 15.9921 7.19758L15.9641 7.21947C15.855 7.28308 15.7503 7.35347 15.6504 7.4302C14.8438 7.95839 12.6985 9.21455 10.5783 9.21455C7.88965 9.21455 5.14774 7.41105 5.14774 7.41105C4.68957 7.06029 4.142 6.83858 3.56422 6.7699C2.98644 6.70122 2.40043 6.78818 1.86957 7.02137C1.3387 7.25456 0.883165 7.62511 0.552213 8.09297C0.221262 8.56082 0.0274861 9.10817 -0.00816438 9.67585C-0.0438148 10.2435 0.0800167 10.8099 0.349942 11.3138C0.619867 11.8177 1.02562 12.2399 1.52332 12.5348C2.02103 12.8296 2.59175 12.9859 3.17379 12.9868C3.75583 12.9877 4.32704 12.8331 4.82566 12.5397C4.82566 12.5397 8.40218 10.6896 10.5783 10.6896C12.7545 10.6896 15.9921 12.5479 15.9921 12.5479C16.4854 12.8398 17.0511 12.9941 17.6277 12.994C18.4738 12.994 19.2852 12.6656 19.8834 12.081C20.4817 11.4964 20.8177 10.7036 20.8177 9.87684C20.8177 9.05012 20.4817 8.25727 19.8834 7.67269C19.2852 7.08812 18.4738 6.7597 17.6277 6.7597V6.75423Z" fill="#042336"/>
<path d="M10.4999 11.6885C9.83138 11.6885 9.19024 11.948 8.71753 12.4099C8.24482 12.8718 7.97925 13.4983 7.97925 14.1515V17.5341C7.97925 18.1874 8.24482 18.8139 8.71753 19.2758C9.19024 19.7377 9.83138 19.9972 10.4999 19.9972C11.1684 19.9972 11.8095 19.7377 12.2823 19.2758C12.755 18.8139 13.0205 18.1874 13.0205 17.5341V14.157C13.0213 13.8331 12.9566 13.5122 12.8303 13.2128C12.7039 12.9133 12.5184 12.6411 12.2842 12.4118C12.0501 12.1825 11.772 12.0006 11.4658 11.8765C11.1596 11.7524 10.8314 11.6885 10.4999 11.6885Z" fill="#042336"/>
<path d="M10.4999 8.31144C11.1684 8.31144 11.8095 8.05194 12.2823 7.59003C12.755 7.12812 13.0205 6.50163 13.0205 5.84839V2.46305C13.0205 1.80981 12.755 1.18332 12.2823 0.721412C11.8095 0.2595 11.1684 0 10.4999 0C9.83138 0 9.19024 0.2595 8.71753 0.721412C8.24482 1.18332 7.97925 1.80981 7.97925 2.46305V5.84565C7.97888 6.16933 8.04381 6.48991 8.17032 6.78906C8.29683 7.08821 8.48244 7.36005 8.71654 7.58906C8.95064 7.81807 9.22864 7.99974 9.53464 8.12369C9.84064 8.24764 10.1686 8.31144 10.4999 8.31144Z" fill="#042336"/>
</g>
<defs>
<clipPath id="clip0_1441_2106">
<rect width="155" height="20" fill="white"/>
</clipPath>
</defs>
</svg>
