<svg width="16" height="13" viewBox="0 0 16 13" fill="none" xmlns="http://www.w3.org/2000/svg">
<g clip-path="url(#clip0_769_25726)">
<path d="M9.05139 6.48923L10.6112 8.20174L12.7088 9.48914L13.0737 6.50004L12.7088 3.57837L10.571 4.70927L9.05139 6.48923Z" fill="#00832D"/>
<path d="M0 9.21091V11.7581C0 12.3397 0.491456 12.8118 1.0971 12.8118H3.74899L4.29812 10.8873L3.74899 9.21091L1.92962 8.68347L0 9.21091Z" fill="#0066DA"/>
<path d="M3.74899 0.166626L0 3.76755L1.92973 4.29377L3.74899 3.76755L4.28814 2.114L3.74899 0.166626Z" fill="#E94235"/>
<path d="M0 9.21209H3.74899V3.76746H0V9.21209Z" fill="#2684FC"/>
<path d="M15.1037 1.69134L12.7089 3.57852V9.48918L15.1137 11.3837C15.4737 11.6546 16.0003 11.4077 16.0003 10.9682V2.0984C16.0003 1.654 15.4611 1.40834 15.1037 1.69134Z" fill="#00AC47"/>
<path d="M9.05141 6.48926V9.21096H3.74902V12.8119H11.6117C12.2174 12.8119 12.7088 12.3397 12.7088 11.7581V9.48917L9.05141 6.48926Z" fill="#00AC47"/>
<path d="M11.6117 0.166626H3.74902V3.76755H9.05141V6.48925L12.7088 3.5784V1.2204C12.7088 0.638672 12.2174 0.166626 11.6117 0.166626Z" fill="#FFBA00"/>
</g>
<defs>
<clipPath id="clip0_769_25726">
<rect width="16" height="12.6667" fill="white" transform="translate(0 0.166626)"/>
</clipPath>
</defs>
</svg>
