<svg width="88" height="12" viewBox="0 0 88 12" fill="none" xmlns="http://www.w3.org/2000/svg">
<g clip-path="url(#clip0_865_1128)">
<path d="M88.0001 3.6203C87.9989 2.66361 87.6301 1.74648 86.9746 1.07015C86.3191 0.393816 85.4305 0.0135161 84.5037 0.0126953H77.1068C76.9906 0.0146523 76.8796 0.0628532 76.797 0.147238C76.7144 0.231624 76.6666 0.345673 76.6635 0.465584V2.19339C76.6658 2.31384 76.7133 2.42867 76.796 2.51372C76.8787 2.59876 76.9901 2.64739 77.1068 2.64938H84.1146C84.2325 2.65181 84.3449 2.70191 84.4275 2.78891C84.5101 2.8759 84.5563 2.99286 84.5563 3.11467V3.75523C84.5568 3.80013 84.542 3.84379 84.5146 3.87864C84.4871 3.91348 84.4487 3.93731 84.4061 3.946L78.4275 4.83937C76.2428 5.1992 74.9416 6.4462 74.9326 8.4206C74.939 9.37352 75.3098 10.2852 75.9644 10.9572C76.619 11.6291 77.5043 12.0068 78.4275 12.008H84.5127C85.4355 12.0064 86.3203 11.6285 86.9743 10.9565C87.6283 10.2846 87.9987 9.37311 88.0046 8.4206L88.0001 3.6203ZM84.1146 9.35895H78.8106C78.6937 9.35895 78.5816 9.31112 78.4988 9.22595C78.416 9.14077 78.3693 9.02518 78.3689 8.90451V7.92739C78.3652 7.87167 78.3724 7.81576 78.3899 7.76293C78.4074 7.71009 78.4349 7.66138 78.4709 7.61965C78.5068 7.57792 78.5505 7.544 78.5993 7.51988C78.6481 7.49576 78.701 7.48191 78.7551 7.47916L84.3429 6.58734C84.3693 6.58185 84.3965 6.58263 84.4226 6.58962C84.4486 6.59661 84.4728 6.60962 84.4932 6.62766C84.5135 6.64585 84.5298 6.66822 84.5412 6.69333C84.5526 6.71844 84.5588 6.74574 84.5593 6.77345V8.90606C84.5593 8.96614 84.5478 9.02561 84.5254 9.08105C84.503 9.13649 84.4701 9.1868 84.4288 9.22906C84.3874 9.27132 84.3384 9.30469 84.2844 9.32726C84.2305 9.34982 84.1728 9.36112 84.1146 9.3605V9.35895Z" fill="#00A1E9"/>
<path d="M36.3426 2.64938H42.8035C42.9207 2.64938 43.033 2.60134 43.1159 2.51582C43.1987 2.43031 43.2453 2.31432 43.2453 2.19339V0.465585C43.2422 0.34541 43.1941 0.231136 43.1112 0.146709C43.0283 0.0622826 42.917 0.0142571 42.8005 0.0126966H35.9535C35.4942 0.0122891 35.0394 0.10529 34.6149 0.286388C34.1905 0.467485 33.8047 0.73313 33.4798 1.06815C33.1548 1.40316 32.897 1.80099 32.721 2.23889C32.545 2.6768 32.4543 3.14621 32.4541 3.6203V8.39424C32.4553 9.35025 32.8237 10.2667 33.4786 10.9427C34.1335 11.6187 35.0213 11.9991 35.9475 12.0003H42.7945C42.9125 11.9979 43.0248 11.9478 43.1074 11.8608C43.19 11.7738 43.2363 11.6568 43.2362 11.535V9.8196C43.2363 9.69779 43.19 9.58083 43.1074 9.49383C43.0248 9.40683 42.9125 9.35674 42.7945 9.3543H36.3336C36.275 9.35554 36.2167 9.34471 36.1622 9.32244C36.1076 9.30018 36.0579 9.26692 36.016 9.22462C35.974 9.18232 35.9406 9.13182 35.9178 9.07606C35.8949 9.0203 35.8831 8.9604 35.8829 8.89986V3.10227C35.886 2.9794 35.9361 2.86281 36.0223 2.77795C36.1084 2.6931 36.2236 2.64688 36.3426 2.64938Z" fill="#00A1E9"/>
<path d="M47.8402 2.64924H54.292C54.3508 2.65048 54.4092 2.6396 54.4638 2.61724C54.5185 2.59488 54.5682 2.56149 54.6102 2.51902C54.6522 2.47655 54.6855 2.42587 54.7083 2.36993C54.7311 2.31399 54.7428 2.25392 54.7428 2.19325V0.465449C54.743 0.404646 54.7314 0.344413 54.7087 0.288294C54.6861 0.232175 54.6528 0.181303 54.6108 0.138671C54.5688 0.0960393 54.5189 0.0625087 54.4642 0.0400521C54.4094 0.0175954 54.3509 0.00666625 54.292 0.00790754H47.448C46.5215 0.00913871 45.6332 0.389619 44.9781 1.06591C44.3229 1.7422 43.9543 2.65909 43.9531 3.61551V8.3941C43.9551 9.35013 44.324 10.2664 44.979 10.9422C45.6341 11.6181 46.5219 11.9985 47.448 12.0002H54.292C54.3515 12.0014 54.4107 11.9903 54.466 11.9673C54.5212 11.9444 54.5714 11.9102 54.6135 11.8667C54.6556 11.8232 54.6887 11.7714 54.711 11.7144C54.7332 11.6574 54.744 11.5963 54.7428 11.5349V9.81946C54.744 9.75801 54.7332 9.69694 54.711 9.63991C54.6887 9.58289 54.6556 9.53109 54.6135 9.48763C54.5714 9.44416 54.5212 9.40994 54.466 9.387C54.4107 9.36407 54.3515 9.3529 54.292 9.35417H47.8402C47.7815 9.3554 47.7232 9.34457 47.6687 9.32231C47.6142 9.30004 47.5645 9.26679 47.5225 9.22449C47.4805 9.18219 47.4472 9.13168 47.4243 9.07592C47.4015 9.02017 47.3896 8.96027 47.3894 8.89973V3.10213C47.3925 2.98089 47.4414 2.8657 47.5256 2.78111C47.6098 2.69651 47.7227 2.6492 47.8402 2.64924Z" fill="#00A1E9"/>
<path d="M66.882 0H64.3277C64.2081 0 64.0935 0.0490222 64.0089 0.136282C63.9244 0.223542 63.8769 0.341892 63.8769 0.465297V8.90423C63.8769 9.02516 63.8304 9.14115 63.7475 9.22666C63.6647 9.31218 63.5523 9.36022 63.4352 9.36022H59.4204C59.3024 9.36024 59.1891 9.3125 59.1048 9.22724C59.0206 9.14198 58.972 9.02601 58.9697 8.90423V0.465297C58.9697 0.343224 58.9232 0.226034 58.8403 0.138994C58.7574 0.0519534 58.6447 0.00203454 58.5264 0L55.9721 0C55.8526 0 55.7379 0.0490222 55.6534 0.136282C55.5689 0.223542 55.5214 0.341892 55.5214 0.465297V8.39395C55.5234 9.35051 55.8927 10.2672 56.5483 10.9432C57.204 11.6191 58.0926 11.9992 59.0192 12H63.8198C64.7461 11.9988 65.6341 11.6185 66.2892 10.9425C66.9443 10.2666 67.3131 9.3501 67.3147 8.39395V0.465297C67.3148 0.34505 67.2698 0.229436 67.1891 0.142692C67.1084 0.0559473 66.9984 0.00480982 66.882 0Z" fill="#00A1E9"/>
<path d="M31.6613 3.6203C31.6609 2.66363 31.2926 1.74626 30.6372 1.06979C29.9819 0.393324 29.0932 0.0131063 28.1664 0.0126953H19.8725C19.7542 0.0126784 19.6407 0.0606346 19.5564 0.146224C19.472 0.231814 19.4237 0.348182 19.4217 0.470237V2.19339C19.4241 2.31517 19.4726 2.43114 19.5569 2.5164C19.6412 2.60166 19.7545 2.6494 19.8725 2.64938H27.7773C27.8955 2.65141 28.0082 2.70133 28.0912 2.78837C28.1741 2.87541 28.2205 2.9926 28.2205 3.11467V3.75523C28.2199 3.80177 28.2032 3.84655 28.1735 3.88152C28.1437 3.91649 28.1029 3.93936 28.0582 3.946L22.0872 4.83162C19.904 5.19145 18.6043 6.43844 18.5908 8.41285C18.5979 9.36578 18.9693 10.2773 19.624 10.9491C20.2788 11.6209 21.164 11.9987 22.0872 12.0003H28.1709C29.0941 11.9991 29.9794 11.6214 30.634 10.9494C31.2886 10.2775 31.6595 9.36577 31.6658 8.41285L31.6613 3.6203ZM27.7773 9.35895H22.4734C22.4147 9.36019 22.3564 9.34936 22.3019 9.32709C22.2473 9.30483 22.1976 9.27158 22.1557 9.22927C22.1137 9.18697 22.0803 9.13647 22.0575 9.08071C22.0346 9.02495 22.0228 8.96506 22.0226 8.90451V7.92739C22.0189 7.87167 22.0261 7.81576 22.0436 7.76293C22.0611 7.71009 22.0886 7.66138 22.1246 7.61965C22.1605 7.57792 22.2042 7.544 22.253 7.51988C22.3017 7.49576 22.3547 7.48191 22.4087 7.47916L27.9996 6.58734C28.026 6.58261 28.0531 6.58377 28.079 6.59072C28.1049 6.59768 28.1291 6.61027 28.1499 6.62766C28.1694 6.64639 28.1852 6.66891 28.1963 6.69392C28.2073 6.71894 28.2135 6.74596 28.2145 6.77345V8.90606C28.2141 9.02593 28.168 9.14082 28.0862 9.22586C28.0044 9.31091 27.8934 9.35928 27.7773 9.3605V9.35895Z" fill="#00A1E9"/>
<path d="M14.5129 0.0127433H3.49488C2.5686 0.0139735 1.68059 0.394241 1.02547 1.0702C0.370358 1.74615 0.00159009 2.66264 0 3.61879L0 11.5428C0 11.6662 0.0474904 11.7845 0.132024 11.8718C0.216558 11.9591 0.33121 12.0081 0.450758 12.0081H3.00505C3.1246 12.0081 3.23925 11.9591 3.32379 11.8718C3.40832 11.7845 3.45581 11.6662 3.45581 11.5428V3.10231C3.45933 2.98134 3.50837 2.86655 3.59252 2.78229C3.67668 2.69802 3.78933 2.65092 3.90657 2.65097H6.841C6.96055 2.65097 7.07521 2.7 7.15974 2.78726C7.24427 2.87452 7.29176 2.99287 7.29176 3.11627V11.5428C7.29036 11.6035 7.30076 11.6639 7.32234 11.7204C7.34393 11.7769 7.37627 11.8284 7.41745 11.8717C7.45863 11.9151 7.50782 11.9495 7.5621 11.9729C7.61639 11.9964 7.67467 12.0083 7.73351 12.0081H10.2878C10.4073 12.0081 10.522 11.9591 10.6065 11.8718C10.6911 11.7845 10.7386 11.6662 10.7386 11.5428V3.10231C10.7385 2.98024 10.785 2.86305 10.8679 2.77601C10.9508 2.68897 11.0636 2.63905 11.1818 2.63702H14.1238C14.1833 2.63575 14.2424 2.64692 14.2977 2.66985C14.3529 2.69279 14.4031 2.72701 14.4452 2.77048C14.4873 2.81394 14.5205 2.86574 14.5427 2.92276C14.5649 2.97979 14.5757 3.04086 14.5745 3.10231V11.5428C14.5745 11.6662 14.622 11.7845 14.7065 11.8718C14.7911 11.9591 14.9057 12.0081 15.0253 12.0081H17.5796C17.6991 12.0081 17.8138 11.9591 17.8983 11.8718C17.9828 11.7845 18.0303 11.6662 18.0303 11.5428V3.61879C18.0295 3.14338 17.9378 2.6728 17.7605 2.23404C17.5832 1.79528 17.3237 1.39697 16.9969 1.06196C16.6701 0.726941 16.2825 0.461807 15.8562 0.28176C15.43 0.101713 14.9735 0.0102931 14.5129 0.0127433Z" fill="#00A1E9"/>
<path d="M75.7679 0.0124114H71.6179C70.6913 0.0132328 69.8028 0.393582 69.1476 1.06996C68.4923 1.74634 68.1238 2.66347 68.123 3.62001V11.5425C68.123 11.6659 68.1705 11.7842 68.2551 11.8715C68.3396 11.9587 68.4543 12.0078 68.5738 12.0078H71.1281C71.1867 12.0076 71.2446 11.9953 71.2986 11.9717C71.3525 11.9481 71.4013 11.9136 71.4422 11.8703C71.4831 11.827 71.5151 11.7756 71.5365 11.7193C71.5579 11.6631 71.5682 11.6029 71.5668 11.5425V3.10198C71.5668 2.97858 71.6143 2.86023 71.6989 2.77297C71.7834 2.68571 71.898 2.63668 72.0176 2.63668H75.0707C75.1631 2.63673 75.2531 2.60681 75.3281 2.55114C75.403 2.49547 75.4591 2.41688 75.4884 2.32649L76.0894 0.51183C76.1157 0.457401 76.1276 0.396783 76.124 0.336088C76.1203 0.275392 76.1012 0.216765 76.0686 0.166117C76.036 0.11547 75.991 0.0745923 75.9382 0.0476067C75.8854 0.020621 75.8267 0.00848124 75.7679 0.0124114Z" fill="#00A1E9"/>
</g>
<defs>
<clipPath id="clip0_865_1128">
<rect width="88" height="12" fill="white"/>
</clipPath>
</defs>
</svg>
