<svg width="16" height="17" viewBox="0 0 16 17" fill="none" xmlns="http://www.w3.org/2000/svg">
<g clip-path="url(#clip0_769_25710)">
<path d="M11.1601 6.56262H15.293C15.6834 6.56262 16 6.88753 16 7.28833V11.1526C16 12.6256 14.8366 13.8197 13.4016 13.8197H13.3893C11.9543 13.8199 10.7909 12.626 10.7906 11.1529C10.7906 11.1528 10.7906 11.1527 10.7906 11.1525V6.94191C10.7906 6.73243 10.9561 6.56262 11.1601 6.56262Z" fill="#5059C9"/>
<path d="M13.9535 5.79879C14.8782 5.79879 15.6279 5.02926 15.6279 4.08C15.6279 3.13073 14.8782 2.36121 13.9535 2.36121C13.0287 2.36121 12.2791 3.13073 12.2791 4.08C12.2791 5.02926 13.0287 5.79879 13.9535 5.79879Z" fill="#5059C9"/>
<path d="M8.74417 5.79877C10.0799 5.79877 11.1628 4.68723 11.1628 3.31607C11.1628 1.94492 10.0799 0.833374 8.74417 0.833374C7.40841 0.833374 6.32556 1.94492 6.32556 3.31607C6.32556 4.68723 7.40841 5.79877 8.74417 5.79877Z" fill="#7B83EB"/>
<path d="M11.9692 6.56262H5.14719C4.76139 6.57242 4.4562 6.90108 4.46515 7.29712V11.7045C4.41127 14.0811 6.24299 16.0533 8.55817 16.1115C10.8734 16.0533 12.7051 14.0811 12.6512 11.7045V7.29712C12.6601 6.90108 12.355 6.57242 11.9692 6.56262Z" fill="#7B83EB"/>
<path opacity="0.1" d="M8.93028 6.56262V12.7388C8.92843 13.022 8.76123 13.2765 8.5061 13.3843C8.42486 13.4196 8.33756 13.4378 8.24935 13.4378H4.7926C4.74423 13.3117 4.69958 13.1857 4.66237 13.0558C4.53212 12.6176 4.46566 12.1619 4.46516 11.7037V7.29597C4.45621 6.90057 4.7609 6.57242 5.14609 6.56262H8.93028Z" fill="#575757"/>
<path opacity="0.2" d="M8.55819 6.56262V13.1208C8.55819 13.2113 8.54046 13.3009 8.5061 13.3843C8.40104 13.6462 8.15317 13.8178 7.87726 13.8197H4.96749C4.90423 13.6937 4.8447 13.5676 4.7926 13.4378C4.74051 13.3079 4.69958 13.1857 4.66237 13.0558C4.53212 12.6176 4.46566 12.1619 4.46516 11.7037V7.29597C4.45621 6.90057 4.7609 6.57242 5.14609 6.56262H8.55819Z" fill="#575757"/>
<path opacity="0.2" d="M8.55818 6.56262V12.3569C8.55535 12.7417 8.25214 13.0529 7.87725 13.0558H4.66237C4.53212 12.6176 4.46566 12.1619 4.46516 11.7037V7.29597C4.45621 6.90057 4.7609 6.57242 5.14609 6.56262H8.55818Z" fill="#575757"/>
<path opacity="0.2" d="M8.18609 6.56262V12.3569C8.18325 12.7417 7.88005 13.0529 7.50516 13.0558H4.66237C4.53212 12.6176 4.46566 12.1619 4.46516 11.7037V7.29597C4.45621 6.90057 4.7609 6.57242 5.14609 6.56262H8.18609Z" fill="#575757"/>
<path opacity="0.1" d="M8.93026 4.58801V5.79116C8.867 5.79498 8.80747 5.7988 8.74421 5.7988C8.68095 5.7988 8.62142 5.79498 8.55816 5.79116C8.43256 5.7826 8.308 5.76215 8.18607 5.73005C7.43258 5.54688 6.81007 5.00444 6.51165 4.27099C6.4603 4.14782 6.42044 4.01992 6.39258 3.88904H8.24932C8.6248 3.8905 8.92883 4.20258 8.93026 4.58801Z" fill="#575757"/>
<path opacity="0.2" d="M8.55811 4.96996V5.79117C8.43251 5.78261 8.30794 5.76215 8.18601 5.73005C7.43252 5.54689 6.81002 5.00445 6.5116 4.271H7.87718C8.25265 4.27246 8.55668 4.58454 8.55811 4.96996Z" fill="#575757"/>
<path opacity="0.2" d="M8.55811 4.96996V5.79117C8.43251 5.78261 8.30794 5.76215 8.18601 5.73005C7.43252 5.54689 6.81002 5.00445 6.5116 4.271H7.87718C8.25265 4.27246 8.55668 4.58454 8.55811 4.96996Z" fill="#575757"/>
<path opacity="0.2" d="M8.18602 4.96997V5.73006C7.43252 5.54689 6.81002 5.00445 6.5116 4.271H7.50508C7.88056 4.27246 8.18459 4.58455 8.18602 4.96997Z" fill="#575757"/>
<path d="M0.682043 4.271H7.50399C7.88068 4.271 8.18604 4.58445 8.18604 4.97111V11.9738C8.18604 12.3605 7.88067 12.674 7.50399 12.674H0.682043C0.305358 12.674 0 12.3605 0 11.9738V4.97111C0 4.58445 0.305365 4.271 0.682043 4.271Z" fill="url(#paint0_linear_769_25710)"/>
<path d="M5.88805 6.93624H4.52432V10.7481H3.65549V6.93624H2.2981V6.19678H5.88805V6.93624Z" fill="white"/>
</g>
<defs>
<linearGradient id="paint0_linear_769_25710" x1="1.42208" y1="3.72394" x2="6.97626" y2="13.0952" gradientUnits="userSpaceOnUse">
<stop stop-color="#5A62C3"/>
<stop offset="0.5" stop-color="#4D55BD"/>
<stop offset="1" stop-color="#3940AB"/>
</linearGradient>
<clipPath id="clip0_769_25710">
<rect width="16" height="15.3333" fill="white" transform="translate(0 0.833374)"/>
</clipPath>
</defs>
</svg>
