<svg width="45" height="34" viewBox="0 0 45 34" fill="none" xmlns="http://www.w3.org/2000/svg">
<path d="M0 29.376C3.38279 28.288 6.09792 26.656 8.1454 24.48C10.1039 22.304 10.8605 19.4933 10.4154 16.048C9.4362 15.232 8.05638 14.3707 6.27597 13.464C4.49555 12.648 2.93769 12.0133 1.60238 11.56C1.2463 10.1093 1.2463 8.704 1.60238 7.344C1.95846 5.984 2.53709 4.76 3.33828 3.672C4.13947 2.67467 5.07418 1.81334 6.14243 1.08801C7.21068 0.453342 8.18991 0.0906715 9.08012 0C12.1958 0.272003 14.911 1.45067 17.2255 3.536C19.5401 5.62134 20.6973 8.61333 20.6973 12.512C20.6973 14.7787 20.3412 17.0453 19.6291 19.312C18.8279 21.5787 17.6706 23.664 16.1573 25.568C14.6439 27.5627 12.73 29.2853 10.4154 30.736C8.10089 32.2773 5.34125 33.3653 2.1365 34L0 29.376ZM24.3027 29.376C27.6855 28.288 30.4006 26.656 32.4481 24.48C34.4065 22.304 35.1632 19.4933 34.7181 16.048C33.7389 15.232 32.359 14.3707 30.5786 13.464C28.7982 12.648 27.2404 12.0133 25.905 11.56C25.549 10.1093 25.549 8.704 25.905 7.344C26.2611 5.984 26.8398 4.76 27.641 3.672C28.4421 2.67467 29.3769 1.81334 30.4451 1.08801C31.5134 0.453342 32.4926 0.0906715 33.3828 0C36.4985 0.272003 39.2137 1.45067 41.5282 3.536C43.8427 5.62134 45 8.61333 45 12.512C45 14.7787 44.6439 17.0453 43.9318 19.312C43.1306 21.5787 41.9733 23.664 40.4599 25.568C38.9466 27.5627 37.0326 29.2853 34.7181 30.736C32.4036 32.2773 29.6439 33.3653 26.4392 34L24.3027 29.376Z" fill="#042336"/>
</svg>
